<svg width="206" height="72" viewBox="0 0 206 72" fill="none" xmlns="http://www.w3.org/2000/svg">
<path d="M53.5276 33.1991C14.0444 29.0584 4.46063 27.4598 0 54.4598H6.8937C10.1378 33.1991 14.5984 36.0313 53.5276 33.1991Z" fill="#264772"/>
<path d="M59.9016 53.7143H55.1496L58.1196 39.7443H62.8936L59.9016 53.7143ZM68.3754 47.3343H74.0734L72.7974 53.7143H70.2014L69.7834 52.3063H69.6954C69.314 52.7463 68.8594 53.1203 68.3314 53.4283C67.818 53.7363 67.1434 53.8903 66.3074 53.8903C65.662 53.8903 65.0387 53.7876 64.4374 53.5823C63.8507 53.3623 63.3227 53.025 62.8534 52.5703C62.3987 52.101 62.032 51.4923 61.7534 50.7443C61.4747 49.9963 61.3354 49.0943 61.3354 48.0383C61.3354 46.8943 61.5114 45.809 61.8634 44.7823C62.2154 43.7556 62.7434 42.8536 63.4474 42.0763C64.1514 41.2843 65.0314 40.661 66.0874 40.2063C67.1434 39.7516 68.3754 39.5243 69.7834 39.5243C70.8687 39.5243 71.8147 39.649 72.6214 39.8983C73.428 40.1476 74.1907 40.4263 74.9094 40.7343L74.0734 45.0023H70.3554C70.37 44.841 70.392 44.6503 70.4214 44.4303C70.4507 44.2103 70.4727 43.983 70.4874 43.7483C70.502 43.499 70.5167 43.257 70.5314 43.0223C70.546 42.7876 70.5534 42.5823 70.5534 42.4063C70.5534 42.289 70.546 42.157 70.5314 42.0103C70.5167 41.849 70.48 41.695 70.4214 41.5483C70.3627 41.4016 70.2747 41.2843 70.1574 41.1963C70.04 41.0936 69.8714 41.0423 69.6514 41.0423C69.27 41.0423 68.918 41.2036 68.5954 41.5263C68.2874 41.8343 68.0087 42.2523 67.7594 42.7803C67.51 43.2936 67.29 43.8803 67.0994 44.5403C66.9234 45.2003 66.7694 45.875 66.6374 46.5643C66.52 47.239 66.4247 47.9063 66.3514 48.5663C66.2927 49.2116 66.2634 49.7763 66.2634 50.2603C66.2634 50.407 66.2707 50.5903 66.2854 50.8103C66.3 51.0303 66.344 51.2503 66.4174 51.4703C66.5054 51.6756 66.6227 51.859 66.7694 52.0203C66.9307 52.167 67.158 52.2403 67.4514 52.2403C67.9354 52.2403 68.4047 51.9763 68.8594 51.4483C69.314 50.9203 69.6587 50.0403 69.8934 48.8083H68.0454L68.3754 47.3343ZM85.1306 53.7143H80.3786L81.6986 47.4883H78.9926L77.6726 53.7143H72.9206L75.8906 39.7443H80.6646L79.3666 45.8163H82.0506L83.3486 39.7443H88.1446L85.1306 53.7143ZM101.834 43.7923C101.878 43.5723 101.9 43.2716 101.9 42.8903C101.9 42.6703 101.885 42.4576 101.856 42.2523C101.826 42.0323 101.775 41.8416 101.702 41.6803C101.628 41.5043 101.518 41.3723 101.372 41.2843C101.225 41.1816 101.034 41.1303 100.8 41.1303C100.536 41.1303 100.294 41.189 100.074 41.3063C99.8538 41.4236 99.6558 41.5776 99.4798 41.7683C99.3184 41.9443 99.1864 42.157 99.0838 42.4063C98.9958 42.641 98.9518 42.8903 98.9518 43.1543C98.9518 43.5356 99.0471 43.829 99.2378 44.0343C99.4431 44.2396 99.7071 44.4083 100.03 44.5403C100.352 44.6723 100.719 44.7823 101.13 44.8703C101.54 44.9583 101.966 45.061 102.406 45.1783C102.772 45.281 103.139 45.413 103.506 45.5743C103.872 45.7356 104.195 45.9556 104.474 46.2343C104.767 46.4983 105.002 46.8503 105.178 47.2903C105.354 47.7156 105.442 48.251 105.442 48.8963C105.442 49.8203 105.258 50.5976 104.892 51.2283C104.525 51.859 104.019 52.3723 103.374 52.7683C102.728 53.1643 101.958 53.4503 101.064 53.6263C100.184 53.8023 99.2231 53.8903 98.1818 53.8903C97.1258 53.8903 96.2604 53.8243 95.5858 53.6923C94.9258 53.5456 94.4051 53.3916 94.0238 53.2303C93.5691 53.0396 93.2318 52.8196 93.0118 52.5703L93.7598 49.5563H97.6318C97.6171 49.6883 97.6024 49.8716 97.5878 50.1063C97.5731 50.3263 97.5658 50.5023 97.5658 50.6343C97.5658 50.8103 97.5878 50.9936 97.6318 51.1843C97.6758 51.375 97.7418 51.551 97.8298 51.7123C97.9324 51.8736 98.0718 52.0056 98.2478 52.1083C98.4238 52.211 98.6438 52.2623 98.9078 52.2623C99.2011 52.2623 99.4578 52.1963 99.6778 52.0643C99.9124 51.9323 100.103 51.771 100.25 51.5803C100.411 51.375 100.528 51.155 100.602 50.9203C100.69 50.671 100.734 50.429 100.734 50.1943C100.734 49.8716 100.653 49.6003 100.492 49.3803C100.345 49.1603 100.14 48.977 99.8758 48.8303C99.6118 48.669 99.3038 48.537 98.9518 48.4343C98.6144 48.317 98.2624 48.1996 97.8958 48.0823C97.5438 47.9796 97.1698 47.855 96.7738 47.7083C96.3924 47.5616 96.0404 47.3563 95.7178 47.0923C95.3951 46.8283 95.1238 46.4983 94.9038 46.1023C94.6984 45.6916 94.5958 45.171 94.5958 44.5403C94.5958 43.6016 94.8304 42.817 95.2998 42.1863C95.7838 41.541 96.3851 41.0203 97.1038 40.6243C97.8371 40.2283 98.6364 39.9496 99.5018 39.7883C100.367 39.6123 101.188 39.5243 101.966 39.5243C102.992 39.5243 103.872 39.649 104.606 39.8983C105.354 40.133 105.918 40.4116 106.3 40.7343L105.486 43.7923H101.834ZM117.501 41.4163H113.959L111.341 53.7143H106.589L109.207 41.4163H105.709L106.105 39.7443H117.875L117.501 41.4163ZM128.252 43.0663C128.252 43.9316 128.01 44.731 127.526 45.4643C127.042 46.1976 126.243 46.755 125.128 47.1363L127.68 53.7143H122.774L120.838 47.6203H120.596L119.298 53.7143H114.546L117.516 39.7443H123.302C123.977 39.7443 124.615 39.7883 125.216 39.8763C125.817 39.9496 126.338 40.111 126.778 40.3603C127.233 40.595 127.592 40.9323 127.856 41.3723C128.12 41.7976 128.252 42.3623 128.252 43.0663ZM121.916 46.2123C122.297 46.2123 122.62 46.0876 122.884 45.8383C123.163 45.5743 123.383 45.259 123.544 44.8923C123.72 44.5256 123.845 44.137 123.918 43.7263C123.991 43.301 124.028 42.9343 124.028 42.6263C124.028 42.245 123.962 41.9223 123.83 41.6583C123.698 41.3796 123.412 41.2403 122.972 41.2403H121.982L120.882 46.2123H121.916ZM129.678 39.7443H138.94L138.588 41.4163H134.1L133.176 45.6623H136.938L136.586 47.3123H132.824L131.812 52.0203H136.3L135.97 53.7143H126.708L129.678 39.7443ZM138.982 39.7443H148.244L147.892 41.4163H143.404L142.48 45.6623H146.242L145.89 47.3123H142.128L141.116 52.0203H145.604L145.274 53.7143H136.012L138.982 39.7443ZM158.715 41.4163H155.173L152.555 53.7143H147.803L150.421 41.4163H146.923L147.319 39.7443H159.089L158.715 41.4163Z" fill="#264772"/>
<path d="M60.8247 25.9514H63.4287L62.0127 32.5634H64.4487L64.2447 33.5714H59.2047L60.8247 25.9514ZM68.6653 25.8314C69.3533 25.8314 69.9093 25.9194 70.3333 26.0954C70.7653 26.2714 71.1053 26.5434 71.3533 26.9114C71.5133 27.1594 71.6373 27.4394 71.7253 27.7514C71.8133 28.0634 71.8573 28.4234 71.8573 28.8314C71.8573 29.1834 71.8253 29.5354 71.7613 29.8874C71.6973 30.2394 71.6053 30.5794 71.4853 30.9074C71.3733 31.2274 71.2333 31.5314 71.0653 31.8194C70.9053 32.0994 70.7253 32.3474 70.5253 32.5634C70.1493 32.9714 69.7133 33.2594 69.2173 33.4274C68.7293 33.5874 68.1253 33.6674 67.4053 33.6674C66.7093 33.6674 66.1493 33.5954 65.7253 33.4514C65.3013 33.3074 64.9653 33.0754 64.7173 32.7554C64.5413 32.5314 64.4013 32.2474 64.2973 31.9034C64.2013 31.5594 64.1533 31.1274 64.1533 30.6074C64.1533 29.7194 64.3093 28.9274 64.6213 28.2314C64.9413 27.5274 65.3933 26.9714 65.9773 26.5634C66.3293 26.3154 66.7213 26.1314 67.1533 26.0114C67.5853 25.8914 68.0893 25.8314 68.6653 25.8314ZM67.3093 32.8274C67.4933 32.8274 67.6653 32.7474 67.8253 32.5874C67.9933 32.4194 68.1453 32.1994 68.2813 31.9274C68.4253 31.6474 68.5533 31.3314 68.6653 30.9794C68.7853 30.6274 68.8853 30.2634 68.9653 29.8874C69.0453 29.5114 69.1053 29.1394 69.1453 28.7714C69.1933 28.3954 69.2173 28.0554 69.2173 27.7514C69.2173 27.3354 69.1733 27.0514 69.0853 26.8994C69.0053 26.7394 68.8853 26.6594 68.7253 26.6594C68.5413 26.6594 68.3653 26.7394 68.1973 26.8994C68.0293 27.0594 67.8693 27.2754 67.7173 27.5474C67.5733 27.8114 67.4413 28.1194 67.3213 28.4714C67.2093 28.8154 67.1093 29.1714 67.0213 29.5394C66.9413 29.9074 66.8773 30.2714 66.8293 30.6314C66.7893 30.9914 66.7693 31.3234 66.7693 31.6274C66.7693 32.0834 66.8173 32.3994 66.9133 32.5754C67.0173 32.7434 67.1493 32.8274 67.3093 32.8274ZM75.4282 30.0914H78.5362L77.8402 33.5714H76.4242L76.1962 32.8034H76.1482C75.9402 33.0434 75.6922 33.2474 75.4042 33.4154C75.1242 33.5834 74.7562 33.6674 74.3002 33.6674C73.9482 33.6674 73.6082 33.6114 73.2802 33.4994C72.9602 33.3794 72.6722 33.1954 72.4161 32.9474C72.1682 32.6914 71.9682 32.3594 71.8161 31.9514C71.6641 31.5434 71.5881 31.0514 71.5881 30.4754C71.5881 29.8514 71.6841 29.2594 71.8761 28.6994C72.0681 28.1394 72.3562 27.6474 72.7402 27.2234C73.1242 26.7914 73.6042 26.4514 74.1802 26.2034C74.7562 25.9554 75.4282 25.8314 76.1962 25.8314C76.7882 25.8314 77.3042 25.8994 77.7442 26.0354C78.1842 26.1714 78.6002 26.3234 78.9922 26.4914L78.5362 28.8194H76.5082C76.5162 28.7314 76.5282 28.6274 76.5442 28.5074C76.5602 28.3874 76.5722 28.2634 76.5802 28.1354C76.5882 27.9994 76.5962 27.8674 76.6042 27.7394C76.6122 27.6114 76.6162 27.4994 76.6162 27.4034C76.6162 27.3394 76.6122 27.2674 76.6042 27.1874C76.5962 27.0994 76.5762 27.0154 76.5442 26.9354C76.5122 26.8554 76.4642 26.7914 76.4002 26.7434C76.3362 26.6874 76.2442 26.6594 76.1242 26.6594C75.9162 26.6594 75.7242 26.7474 75.5482 26.9234C75.3802 27.0914 75.2282 27.3194 75.0922 27.6074C74.9562 27.8874 74.8362 28.2074 74.7322 28.5674C74.6362 28.9274 74.5522 29.2954 74.4802 29.6714C74.4162 30.0394 74.3642 30.4034 74.3242 30.7634C74.2922 31.1154 74.2761 31.4234 74.2761 31.6874C74.2761 31.7674 74.2802 31.8674 74.2882 31.9874C74.2962 32.1074 74.3202 32.2274 74.3601 32.3474C74.4082 32.4594 74.4722 32.5594 74.5522 32.6474C74.6402 32.7274 74.7642 32.7674 74.9242 32.7674C75.1882 32.7674 75.4442 32.6234 75.6921 32.3354C75.9402 32.0474 76.1282 31.5674 76.2562 30.8954H75.2481L75.4282 30.0914ZM80.6794 33.5714H78.0874L79.7074 25.9514H82.3114L80.6794 33.5714ZM85.9494 28.1594C85.9734 28.0394 85.9854 27.8754 85.9854 27.6674C85.9854 27.5474 85.9774 27.4314 85.9614 27.3194C85.9454 27.1994 85.9174 27.0954 85.8774 27.0074C85.8374 26.9114 85.7774 26.8394 85.6974 26.7914C85.6174 26.7354 85.5134 26.7074 85.3854 26.7074C85.2414 26.7074 85.1094 26.7394 84.9894 26.8034C84.8694 26.8674 84.7614 26.9514 84.6654 27.0554C84.5774 27.1514 84.5054 27.2674 84.4494 27.4034C84.4014 27.5314 84.3774 27.6674 84.3774 27.8114C84.3774 28.0194 84.4294 28.1794 84.5334 28.2914C84.6454 28.4034 84.7894 28.4954 84.9654 28.5674C85.1414 28.6394 85.3414 28.6994 85.5654 28.7474C85.7894 28.7954 86.0214 28.8514 86.2614 28.9154C86.4614 28.9714 86.6614 29.0434 86.8614 29.1314C87.0614 29.2194 87.2374 29.3394 87.3894 29.4914C87.5494 29.6354 87.6774 29.8274 87.7734 30.0674C87.8694 30.2994 87.9174 30.5914 87.9174 30.9434C87.9174 31.4474 87.8174 31.8714 87.6174 32.2154C87.4174 32.5594 87.1414 32.8394 86.7894 33.0554C86.4374 33.2714 86.0174 33.4274 85.5294 33.5234C85.0494 33.6194 84.5254 33.6674 83.9574 33.6674C83.3814 33.6674 82.9094 33.6314 82.5414 33.5594C82.1814 33.4794 81.8974 33.3954 81.6894 33.3074C81.4414 33.2034 81.2574 33.0834 81.1374 32.9474L81.5454 31.3034H83.6574C83.6494 31.3754 83.6414 31.4754 83.6334 31.6034C83.6254 31.7234 83.6214 31.8194 83.6214 31.8914C83.6214 31.9874 83.6334 32.0874 83.6574 32.1914C83.6814 32.2954 83.7174 32.3914 83.7654 32.4794C83.8214 32.5674 83.8974 32.6394 83.9934 32.6954C84.0894 32.7514 84.2094 32.7794 84.3534 32.7794C84.5134 32.7794 84.6534 32.7434 84.7734 32.6714C84.9014 32.5994 85.0054 32.5114 85.0854 32.4074C85.1734 32.2954 85.2374 32.1754 85.2774 32.0474C85.3254 31.9114 85.3494 31.7794 85.3494 31.6514C85.3494 31.4754 85.3054 31.3274 85.2174 31.2074C85.1374 31.0874 85.0254 30.9874 84.8814 30.9074C84.7374 30.8194 84.5694 30.7474 84.3774 30.6914C84.1934 30.6274 84.0014 30.5634 83.8014 30.4994C83.6094 30.4434 83.4054 30.3754 83.1894 30.2954C82.9814 30.2154 82.7894 30.1034 82.6134 29.9594C82.4374 29.8154 82.2894 29.6354 82.1694 29.4194C82.0574 29.1954 82.0014 28.9114 82.0014 28.5674C82.0014 28.0554 82.1294 27.6274 82.3854 27.2834C82.6494 26.9314 82.9774 26.6474 83.3694 26.4314C83.7694 26.2154 84.2054 26.0634 84.6774 25.9754C85.1494 25.8794 85.5974 25.8314 86.0214 25.8314C86.5814 25.8314 87.0614 25.8994 87.4614 26.0354C87.8694 26.1634 88.1774 26.3154 88.3854 26.4914L87.9414 28.1594H85.9494ZM94.6752 26.8634H92.7432L91.3152 33.5714H88.7232L90.1512 26.8634H88.2432L88.4592 25.9514H94.8792L94.6752 26.8634ZM95.8355 33.5714H93.2435L94.8635 25.9514H97.4675L95.8355 33.5714ZM103.146 32.9234C102.946 33.0194 102.738 33.1154 102.522 33.2114C102.314 33.2994 102.09 33.3794 101.85 33.4514C101.61 33.5154 101.346 33.5674 101.058 33.6074C100.778 33.6474 100.47 33.6674 100.134 33.6674C99.0615 33.6674 98.2335 33.4274 97.6495 32.9474C97.0735 32.4674 96.7855 31.6674 96.7855 30.5474C96.7855 29.8994 96.8855 29.2914 97.0855 28.7234C97.2855 28.1474 97.5815 27.6474 97.9735 27.2234C98.3655 26.7914 98.8495 26.4514 99.4255 26.2034C100.002 25.9554 100.662 25.8314 101.406 25.8314C101.758 25.8314 102.078 25.8554 102.366 25.9034C102.662 25.9514 102.926 26.0154 103.158 26.0954C103.398 26.1674 103.61 26.2474 103.794 26.3354C103.986 26.4234 104.158 26.5074 104.31 26.5874L103.878 28.8194H101.718C101.726 28.7394 101.734 28.6354 101.742 28.5074C101.758 28.3794 101.77 28.2514 101.778 28.1234C101.786 27.9874 101.794 27.8554 101.802 27.7274C101.81 27.5994 101.814 27.4914 101.814 27.4034C101.814 27.3394 101.81 27.2674 101.802 27.1874C101.794 27.0994 101.774 27.0154 101.742 26.9354C101.71 26.8554 101.658 26.7914 101.586 26.7434C101.522 26.6874 101.434 26.6594 101.322 26.6594C101.114 26.6594 100.922 26.7474 100.746 26.9234C100.578 27.0914 100.426 27.3194 100.29 27.6074C100.154 27.8874 100.034 28.2074 99.9295 28.5674C99.8255 28.9274 99.7375 29.2954 99.6655 29.6714C99.6015 30.0394 99.5495 30.4034 99.5095 30.7634C99.4775 31.1234 99.4615 31.4394 99.4615 31.7114C99.4615 31.7914 99.4655 31.8914 99.4735 32.0114C99.4815 32.1314 99.5055 32.2474 99.5455 32.3594C99.5855 32.4714 99.6455 32.5674 99.7255 32.6474C99.8135 32.7274 99.9295 32.7674 100.074 32.7674C100.322 32.7674 100.562 32.6154 100.794 32.3114C101.026 31.9994 101.23 31.4474 101.406 30.6554H103.626L103.146 32.9234ZM107.99 28.1594C108.014 28.0394 108.026 27.8754 108.026 27.6674C108.026 27.5474 108.018 27.4314 108.002 27.3194C107.986 27.1994 107.958 27.0954 107.918 27.0074C107.878 26.9114 107.818 26.8394 107.738 26.7914C107.658 26.7354 107.554 26.7074 107.426 26.7074C107.282 26.7074 107.15 26.7394 107.03 26.8034C106.91 26.8674 106.802 26.9514 106.706 27.0554C106.618 27.1514 106.546 27.2674 106.49 27.4034C106.442 27.5314 106.418 27.6674 106.418 27.8114C106.418 28.0194 106.47 28.1794 106.574 28.2914C106.686 28.4034 106.83 28.4954 107.006 28.5674C107.182 28.6394 107.382 28.6994 107.606 28.7474C107.83 28.7954 108.062 28.8514 108.302 28.9154C108.502 28.9714 108.702 29.0434 108.902 29.1314C109.102 29.2194 109.278 29.3394 109.43 29.4914C109.59 29.6354 109.718 29.8274 109.814 30.0674C109.91 30.2994 109.958 30.5914 109.958 30.9434C109.958 31.4474 109.858 31.8714 109.658 32.2154C109.458 32.5594 109.182 32.8394 108.83 33.0554C108.478 33.2714 108.058 33.4274 107.57 33.5234C107.09 33.6194 106.566 33.6674 105.998 33.6674C105.422 33.6674 104.95 33.6314 104.582 33.5594C104.222 33.4794 103.938 33.3954 103.73 33.3074C103.482 33.2034 103.298 33.0834 103.178 32.9474L103.586 31.3034H105.698C105.69 31.3754 105.682 31.4754 105.674 31.6034C105.666 31.7234 105.662 31.8194 105.662 31.8914C105.662 31.9874 105.674 32.0874 105.698 32.1914C105.722 32.2954 105.758 32.3914 105.806 32.4794C105.862 32.5674 105.938 32.6394 106.034 32.6954C106.13 32.7514 106.25 32.7794 106.394 32.7794C106.554 32.7794 106.694 32.7434 106.814 32.6714C106.942 32.5994 107.046 32.5114 107.126 32.4074C107.214 32.2954 107.278 32.1754 107.318 32.0474C107.366 31.9114 107.39 31.7794 107.39 31.6514C107.39 31.4754 107.346 31.3274 107.258 31.2074C107.178 31.0874 107.066 30.9874 106.922 30.9074C106.778 30.8194 106.61 30.7474 106.418 30.6914C106.234 30.6274 106.042 30.5634 105.842 30.4994C105.65 30.4434 105.446 30.3754 105.23 30.2954C105.022 30.2154 104.83 30.1034 104.654 29.9594C104.478 29.8154 104.33 29.6354 104.21 29.4194C104.098 29.1954 104.042 28.9114 104.042 28.5674C104.042 28.0554 104.17 27.6274 104.426 27.2834C104.69 26.9314 105.018 26.6474 105.41 26.4314C105.81 26.2154 106.246 26.0634 106.718 25.9754C107.19 25.8794 107.638 25.8314 108.062 25.8314C108.622 25.8314 109.102 25.8994 109.502 26.0354C109.91 26.1634 110.218 26.3154 110.426 26.4914L109.982 28.1594H107.99Z" fill="#1586A6"/>
<path d="M21.2166 54.4286C25.3096 32.4849 30.0083 19.2857 43.7957 0C24.7366 14.1429 18.6228 25.2422 13.8742 54.4286H21.2166Z" fill="#264772"/>
<path d="M111.921 29.1429L206 26.2857L117.316 24.8571C114.516 25.0683 113.085 25.7421 111.921 29.1429Z" fill="#1586A6"/>
<path d="M163.827 35.1428L206 34L166.245 33.4286C164.99 33.513 164.349 33.7826 163.827 35.1428Z" fill="#1586A6"/>
<path d="M163.827 42L206 40.8571L166.245 40.2857C164.99 40.3702 164.349 40.6397 163.827 42Z" fill="#1586A6"/>
<path d="M163.827 48.8571L206 47.7143L166.245 47.1429C164.99 47.2273 164.349 47.4969 163.827 48.8571Z" fill="#1586A6"/>
<path d="M72.9921 19.7143L206 16.8571L80.6188 15.4286C76.6611 15.6398 74.638 16.3136 72.9921 19.7143Z" fill="#1586A6"/>
<path d="M182.886 72C182.886 52.5714 205.594 52.5714 205.594 72C203.395 55.9212 184.563 56.7277 182.886 72Z" fill="#1586A6"/>
<path d="M188.563 72C188.563 61.7143 199.917 61.7143 199.917 72C198.879 63.4877 189.355 63.9147 188.563 72Z" fill="#1586A6"/>
<path d="M158.15 72C158.15 52.5714 180.858 52.5714 180.858 72C178.658 55.9212 159.827 56.7277 158.15 72Z" fill="#1586A6"/>
<path d="M163.827 72C163.827 61.7143 175.181 61.7143 175.181 72C174.143 63.4877 164.618 63.9147 163.827 72Z" fill="#1586A6"/>
<path d="M55.9606 72C55.9606 52.5714 78.6693 52.5714 78.6693 72C76.4693 55.9212 57.638 56.7277 55.9606 72Z" fill="#1586A6"/>
<path d="M61.6378 72C61.6378 61.7143 72.9921 61.7143 72.9921 72C71.9539 63.4877 62.4293 63.9147 61.6378 72Z" fill="#1586A6"/>
<path d="M13.7874 72C13.7874 52.5714 36.4961 52.5714 36.4961 72C34.2961 55.9212 15.4648 56.7277 13.7874 72Z" fill="#1586A6"/>
<path d="M19.4646 72C19.4646 61.7143 30.8189 61.7143 30.8189 72C29.7807 63.4877 20.2561 63.9147 19.4646 72Z" fill="#1586A6"/>
<path d="M205.189 3.85713C80.2913 -1.28573 50.689 -10.2857 42.1732 54.4286H49.0669C59.6102 -7.7143 83.5354 7.71427 205.189 3.85713Z" fill="#264772"/>
</svg>
