<svg width="36" height="23" viewBox="0 0 36 23" fill="none" xmlns="http://www.w3.org/2000/svg">
<path d="M34.5306 19.8367H12.5207C12.1127 19.8367 11.8628 19.3891 12.0769 19.0418C12.287 18.7009 12.3487 18.2887 12.2481 17.9008C12.0011 16.9501 12.6885 16.0119 13.6695 15.961L33.0634 14.9532C33.8709 14.9121 34.5306 14.2163 34.5306 13.4082V3.67347C34.5306 2.86531 33.8694 2.20408 33.0612 2.20408H9.31006C8.6381 2.20408 8.05097 1.75015 7.8818 1.09984C7.79996 0.784893 7.61589 0.506024 7.35847 0.306974C7.10105 0.107924 6.78483 -4.64197e-05 6.45943 1.49713e-08H1.46939C1.07968 1.49713e-08 0.705937 0.15481 0.430374 0.430374C0.15481 0.705937 0 1.07968 0 1.46939C0 1.85909 0.15481 2.23284 0.430374 2.5084C0.705937 2.78396 1.07968 2.93878 1.46939 2.93878H2.23035C4.05195 2.93878 5.64348 4.16952 6.10172 5.93254L8.81731 16.3804C9.0917 17.4361 8.92308 18.558 8.35052 19.4864L7.704 20.5347C7.56677 20.7573 7.49148 21.0125 7.48593 21.2739C7.48037 21.5353 7.54475 21.7935 7.67241 22.0217C7.79955 22.2502 7.98544 22.4406 8.21084 22.5731C8.43624 22.7056 8.69297 22.7755 8.95445 22.7755H34.5306C34.9203 22.7755 35.2941 22.6207 35.5696 22.3451C35.8452 22.0696 36 21.6958 36 21.3061C36 20.9164 35.8452 20.5427 35.5696 20.2671C35.2941 19.9915 34.9203 19.8367 34.5306 19.8367Z" fill="#264772"/>
</svg>
