<svg width="32" height="32" viewBox="0 0 32 32" fill="none" xmlns="http://www.w3.org/2000/svg">
<path d="M11.0625 11.0312H12.9031C13.05 11.0312 13.1906 11.0969 13.2875 11.2094L16 14.4438L18.7125 11.2094C18.8063 11.0969 18.9469 11.0312 19.0969 11.0312H20.9375C21.15 11.0312 21.2656 11.2781 21.1281 11.4406L17.3063 16L21.1313 20.5594C21.2688 20.7219 21.1531 20.9688 20.9406 20.9688H19.1C18.9531 20.9688 18.8125 20.9031 18.7156 20.7906L16 17.5562L13.2875 20.7906C13.1938 20.9031 13.0531 20.9688 12.9031 20.9688H11.0625C10.85 20.9688 10.7344 20.7219 10.8719 20.5594L14.6938 16L10.8719 11.4406C10.8411 11.4044 10.8213 11.3601 10.8149 11.313C10.8086 11.2659 10.8159 11.2179 10.8359 11.1748C10.856 11.1317 10.888 11.0953 10.9282 11.0698C10.9683 11.0444 11.015 11.031 11.0625 11.0312Z" fill="#E71212"/>
<path d="M27.5 28.5H4.5C3.94687 28.5 3.5 28.0531 3.5 27.5V4.5C3.5 3.94687 3.94687 3.5 4.5 3.5H27.5C28.0531 3.5 28.5 3.94687 28.5 4.5V27.5C28.5 28.0531 28.0531 28.5 27.5 28.5ZM26.25 5.75H5.75V26.25H26.25V5.75Z" fill="#E71212"/>
</svg>
