<svg width="30" height="30" viewBox="0 0 30 30" fill="none" xmlns="http://www.w3.org/2000/svg">
<path fill-rule="evenodd" clip-rule="evenodd" d="M14.9964 22.6636C12.2892 22.6636 9.5389 21.0565 7.93375 18.9295C0.232793 18.9295 0 29.9309 0 29.9309H29.9909C29.9909 29.9309 30.5954 18.8807 21.9351 18.8807C20.3319 21.034 17.7036 22.6636 14.9964 22.6636Z" fill="#264772"/>
<path fill-rule="evenodd" clip-rule="evenodd" d="M21.447 9.4751C21.447 12.6403 18.5577 18.693 14.9907 18.693C11.4294 18.693 8.53821 12.6385 8.53821 9.4751C8.53821 6.31174 11.4275 3.7435 14.9907 3.7435C18.5577 3.74538 21.447 6.31361 21.447 9.4751Z" fill="#264772"/>
<path fill-rule="evenodd" clip-rule="evenodd" d="M24.327 6.7435C24.327 6.15025 23.5009 5.67152 22.4759 5.66777V4.4456C22.4759 4.2635 22.5453 0 15.0134 0C7.48512 0 7.55458 4.2635 7.55458 4.4456V5.71095C7.5358 5.71095 7.52079 5.70532 7.50389 5.70532C6.48448 5.70532 5.66407 6.17653 5.66407 6.7604V11.9307C5.66407 12.5108 6.48636 12.9839 7.50389 12.9839C8.52142 12.9839 9.34746 12.5108 9.34746 11.9307V6.7604C9.34746 6.67967 9.29677 6.60645 9.26674 6.53136V5.12146C9.26674 4.99192 8.72605 1.77411 15.0134 1.77411C21.3025 1.77411 20.6492 4.99192 20.6492 5.12146V6.60645C20.6379 6.65339 20.6023 6.69469 20.6023 6.7435V12.032C20.6023 12.6272 21.4339 13.1096 22.4646 13.1096C22.4871 13.1096 22.504 13.1021 22.5266 13.1021V15.0339H20.6792V16.855H24.3457L24.327 6.7435Z" fill="#264772"/>
</svg>
