<svg width="20" height="20" viewBox="0 0 20 20" fill="none" xmlns="http://www.w3.org/2000/svg">
<path d="M19.3801 17.0198L14.6426 12.9911C14.1526 12.5498 13.6288 12.3486 13.2063 12.3673C14.4637 10.893 15.1016 8.98923 14.9864 7.05499C14.8713 5.12075 14.012 3.30613 12.5887 1.99137C11.1653 0.676611 9.28834 -0.0362554 7.35106 0.00214608C5.41377 0.0405476 3.56653 0.827237 2.1964 2.19737C0.82626 3.56751 0.039571 5.41475 0.00116951 7.35203C-0.037232 9.28932 0.675635 11.1663 1.9904 12.5896C3.30516 14.013 5.11978 14.8723 7.05402 14.9874C8.98826 15.1026 10.892 14.4646 12.3663 13.2073C12.3463 13.6298 12.5488 14.1536 12.9901 14.6436L17.0188 19.3811C17.7088 20.1473 18.8351 20.2123 19.5226 19.5248C20.2101 18.8373 20.1451 17.7098 19.3788 17.0211L19.3801 17.0198ZM7.50009 12.4998C6.17401 12.4998 4.90224 11.973 3.96456 11.0354C3.02687 10.0977 2.50009 8.8259 2.50009 7.49982C2.50009 6.17373 3.02687 4.90196 3.96456 3.96428C4.90224 3.0266 6.17401 2.49982 7.50009 2.49982C8.82617 2.49982 10.0979 3.0266 11.0356 3.96428C11.9733 4.90196 12.5001 6.17373 12.5001 7.49982C12.5001 8.8259 11.9733 10.0977 11.0356 11.0354C10.0979 11.973 8.82617 12.4998 7.50009 12.4998Z" fill="#264772"/>
</svg>
