<svg width="40" height="27" viewBox="0 0 40 27" fill="none" xmlns="http://www.w3.org/2000/svg">
<path d="M4.63158 16L3.36842 13.4737H12.2105L11.2 10.9474H2.94737L1.68421 8.42105H14.8211L13.8105 5.89474H1.44842L0 3.36842H6.31579C6.31579 2.47506 6.67068 1.61829 7.30238 0.986587C7.93408 0.354886 8.79085 0 9.68421 0H29.8947V6.73684H34.9474L40 13.4737V21.8947H36.6316C36.6316 23.2348 36.0993 24.5199 35.1517 25.4675C34.2041 26.415 32.919 26.9474 31.5789 26.9474C30.2389 26.9474 28.9537 26.415 28.0062 25.4675C27.0586 24.5199 26.5263 23.2348 26.5263 21.8947H19.7895C19.7895 23.2348 19.2571 24.5199 18.3096 25.4675C17.362 26.415 16.0769 26.9474 14.7368 26.9474C13.3968 26.9474 12.1116 26.415 11.1641 25.4675C10.2165 24.5199 9.68421 23.2348 9.68421 21.8947H6.31579V16H4.63158ZM31.5789 24.4211C32.249 24.4211 32.8915 24.1549 33.3653 23.6811C33.8391 23.2073 34.1053 22.5648 34.1053 21.8947C34.1053 21.2247 33.8391 20.5821 33.3653 20.1084C32.8915 19.6346 32.249 19.3684 31.5789 19.3684C30.9089 19.3684 30.2663 19.6346 29.7926 20.1084C29.3188 20.5821 29.0526 21.2247 29.0526 21.8947C29.0526 22.5648 29.3188 23.2073 29.7926 23.6811C30.2663 24.1549 30.9089 24.4211 31.5789 24.4211ZM34.1053 9.26316H29.8947V13.4737H37.4063L34.1053 9.26316ZM14.7368 24.4211C15.4069 24.4211 16.0494 24.1549 16.5232 23.6811C16.997 23.2073 17.2632 22.5648 17.2632 21.8947C17.2632 21.2247 16.997 20.5821 16.5232 20.1084C16.0494 19.6346 15.4069 19.3684 14.7368 19.3684C14.0668 19.3684 13.4242 19.6346 12.9505 20.1084C12.4767 20.5821 12.2105 21.2247 12.2105 21.8947C12.2105 22.5648 12.4767 23.2073 12.9505 23.6811C13.4242 24.1549 14.0668 24.4211 14.7368 24.4211Z" fill="#264772"/>
</svg>
